<?xml version="1.0" encoding="utf-8"?>
<!-- Generator: Adobe Illustrator 26.1.0, SVG Export Plug-In . SVG Version: 6.00 Build 0)  -->
<svg version="1.1" id="Layer_1" xmlns:svg="http://www.w3.org/2000/svg"
	 xmlns="http://www.w3.org/2000/svg" xmlns:xlink="http://www.w3.org/1999/xlink" x="0px" y="0px" viewBox="0 0 968.8 600"
	 style="enable-background:new 0 0 968.8 600;" xml:space="preserve">
<style type="text/css">
	.st0{fill:#26979E;stroke:#000000;stroke-width:0.6758;stroke-linecap:square;}
	.st1{fill:none;stroke:#FFFFFF;stroke-width:8.01;}
	.st2{fill:#FFFFFF;}
	.st3{stroke:#000000;stroke-width:1.1934;stroke-miterlimit:4.7735;}
	.st4{fill:none;stroke:#000000;stroke-width:1.4321;stroke-miterlimit:4.7735;}
	.st5{font-family:'ArialMT';}
	.st6{font-size:16px;}
	.st7{stroke:#000000;stroke-width:1.1967;stroke-miterlimit:4.7867;}
	.st8{fill:none;stroke:#000000;stroke-width:1.436;stroke-miterlimit:4.7867;}
	.st9{fill:none;stroke:#FFFFFF;stroke-width:5.3;stroke-linecap:square;}
	.st10{stroke:#000000;stroke-width:0.6659;stroke-miterlimit:2.6636;}
	.st11{fill:none;stroke:#000000;stroke-width:0.7991;stroke-miterlimit:2.6636;}
	.st12{stroke:#000000;stroke-width:0.7522;stroke-miterlimit:3.0087;}
	.st13{fill:none;stroke:#000000;stroke-width:0.9026;stroke-miterlimit:3.0087;}
	.st14{fill:none;stroke:#FFFFFF;stroke-width:4.3907;stroke-linecap:square;}
	.st15{fill:none;stroke:#000000;stroke-width:2;}
	.st16{font-size:13.251px;}
	.st17{fill:none;stroke:#FFFFFF;stroke-width:1.4;stroke-opacity:0.5125;}
	.st18{fill:none;stroke:#FFFFFF;stroke-width:1.4;}
	.st19{fill:none;stroke:#000000;stroke-width:1.4;}
</style>
<g id="Feld">
	<path id="rect2966" class="st0" d="M689.5,15v683.6c0,32-24.2,57.9-54.1,57.9h-291c-29.9,0-54.1-25.9-54.1-57.9V15
		c0-32,24.2-57.9,54.1-57.9h291C665.3-42.9,689.5-17,689.5,15z"/>
	<line id="line5" class="st1" x1="695.2" y1="356.8" x2="283.2" y2="356.8"/>
	
		<ellipse id="circle7" transform="matrix(0.1602 -0.9871 0.9871 0.1602 59.2376 783.1573)" class="st2" cx="489.9" cy="356.8" rx="13.4" ry="13.4"/>
</g>
<g id="svg2">
	<g id="g3283">
		<path id="path2968" d="M271.7-35.4l-1.1,0.2l0.1,1h-1c0,0,0,1.2,0,782.2h2c0-781,0-782.2,0-782.2V-35.4z"/>
		<g id="g3289" transform="matrix(-1.1933847,0,0,-1.1933847,882.79632,525.99448)">
			<path id="path3291" class="st3" d="M512.9-178l5,5l-5-17.5l-5,17.5L512.9-178z"/>
			<path id="path3293" class="st4" d="M519.9-192.8h-72"/>
		</g>
		<g id="g3295" transform="matrix(1.1933847,0,0,-1.1933847,119.62968,525.99448)">
			<path id="path3297" class="st3" d="M126.6,461.5l-5-5l5,17.5l5-17.5L126.6,461.5z"/>
			<path id="path3299" class="st4" d="M119.6,476.3h72"/>
		</g>
	</g>
	<text id="text18" transform="matrix(-1.836970e-16 1 -1 -1.836970e-16 251.0742 266.2061)" class="st5 st6">Kentän pituus: 40m</text>
	<g id="g3255">
		<path id="path3843" d="M682.8-85.1l-383,0.7v2l383-0.7V-85.1L682.8-85.1z"/>
		<g id="g3261" transform="matrix(-2.243502e-3,-1.1966622,1.1966622,-2.243502e-3,60.934518,487.35768)">
			<path id="path3263" class="st7" d="M476.6,208.5l5,5l-5-17.5l-5,17.5L476.6,208.5z"/>
			<path id="path3265" class="st8" d="M483.6,193.8l-72,0"/>
		</g>
		<g id="g3267" transform="matrix(2.243502e-3,1.1966622,1.1966622,-2.243502e-3,60.252454,123.5514)">
			<path id="path3269" class="st7" d="M-172.6,512.5l-5-5l5,17.5l5-17.5L-172.6,512.5z"/>
			<path id="path3271" class="st8" d="M-179.6,527.3h72"/>
		</g>
	</g>
	<text id="text28" transform="matrix(1 0 0 1 398.5969 -90.332)" class="st5 st6">Kentän leveys: 20m</text>
	<rect id="rect6107" x="442.4" y="24.4" class="st9" width="95.8" height="74.3"/>
	<g id="g3319">
		<path id="path6859" d="M541-33.3h-1.2v45.6h1.2V-33.3z"/>
		<path id="path3325" d="M535.1-28.4l5.3-14.4l5.3,14.4C542.5-30.7,538.3-30.7,535.1-28.4z"/>
		<path id="path3327" d="M545.7,7.3l-5.3,14.4l-5.3-14.4C538.3,9.6,542.5,9.6,545.7,7.3z"/>
	</g>
	<text id="text35" transform="matrix(-1.836970e-16 1 -1 -1.836970e-16 553.6074 -35.3052)" class="st5 st6">2.85m</text>
	<g id="g3301">
		<path id="path7621" d="M397.7,25.6h-1.1c0,0,0,0.1,0,71.7h1.1C397.7,25.7,397.7,25.6,397.7,25.6z"/>
		<g id="g3307" transform="matrix(-0.6659087,0,0,-0.6659087,236.26551,399.54724)">
			<path id="path3309" class="st10" d="M-241.7,462l5,5l-5-17.5l-5,17.5L-241.7,462z"/>
			<path id="path3311" class="st11" d="M-234.7,447.3h-72"/>
		</g>
		<g id="g3313" transform="matrix(0.6659087,0,0,-0.6659087,175.26361,399.54724)">
			<path id="path3315" class="st10" d="M333.3,553.6l-5-5l5,17.5l5-17.5L333.3,553.6z"/>
			<path id="path3317" class="st11" d="M326.3,568.4h72"/>
		</g>
	</g>
	<text id="text45" transform="matrix(-1.836970e-16 1 -1 -1.836970e-16 377.6055 15.5342)" class="st5 st6">4m</text>
	<g id="g3329">
		<path id="path7627" d="M535.8,148.6c-91.3,0-91.4,0-91.4,0v1.2c0,0,0.2,0,91.4,0V148.6z"/>
		<g id="g3335" transform="matrix(0,0.7521801,-0.7521801,0,293.60056,266.95752)">
			<path id="path3337" class="st12" d="M-156.5-314l5,5l-5-17.5l-5,17.5L-156.5-314z"/>
			<path id="path3339" class="st13" d="M-149.5-328.8h-72"/>
		</g>
		<g id="g3341" transform="matrix(0,-0.7521801,-0.7521801,0,293.60056,346.34862)">
			<path id="path3343" class="st12" d="M262.1-208.5l-5-5l5,17.5l5-17.5L262.1-208.5z"/>
			<path id="path3345" class="st13" d="M255.1-193.7h72"/>
		</g>
	</g>
	<text id="text55" transform="matrix(1 0 0 1 444.5109 139.667)" class="st5 st6">5m </text>
	<rect id="rect7633" x="467.3" y="46" class="st14" width="46.3" height="16.7"/>
	<rect id="rect8409" x="443.2" y="617.4" class="st9" width="95.8" height="74.3"/>
	<rect id="rect8411" x="468.1" y="653.4" class="st14" width="46.3" height="16.7"/>
	<path id="path8419" class="st15" d="M505.7,48.4c0,2.9,0-12,0-12"/>
	<path id="path8421" class="st15" d="M476.7,48.4c0,2.9,0-12,0-12"/>
	<path id="path8423" class="st15" d="M505.7,680.4c0,2.9,0-12,0-12"/>
	<path id="path8425" class="st15" d="M476.7,680.4c0,2.9,0-12,0-12"/>
	<text id="text64" transform="matrix(0.9056 0 0 1 657.7305 70.4158)" class="st5 st16">1.5m</text>
	<g id="g3347">
		<path id="path13889" d="M682.1,48.4H663v0.7h19.1V48.4L682.1,48.4z"/>
		<path id="path3353" d="M665.7,51.7l-8-2.9l8-2.9C664.4,47.6,664.5,50,665.7,51.7z"/>
		<path id="path3355" d="M679.4,45.8l8,2.9l-8,2.9C680.7,50,680.7,47.6,679.4,45.8z"/>
	</g>
	<g id="g3273">
		<path id="path2485" d="M625.3-29.2h-1.2v65.8h1.2V-29.2z"/>
		<path id="path3279" d="M619.4-24.3l5.3-14.4l5.3,14.4C626.8-26.6,622.5-26.6,619.4-24.3z"/>
		<path id="path3281" d="M630,24.8l-5.3,14.4l-5.3-14.4C622.5,27.1,626.8,27.1,630,24.8z"/>
	</g>
	<text id="text78" transform="matrix(-1.836970e-16 1 -1 -1.836970e-16 634.7598 -18.2905)" class="st5 st6">3.5m</text>
</g>
<g id="Bully">
	<path id="path2495" class="st17" d="M640.6,41.7h-27.8"/>
	<g id="g82">
		<g id="g84">
			<path id="path8441" class="st18" d="M668.9,41.7h-26.6"/>
			<path id="path8443" class="st18" d="M655.4,28.2v26.6"/>
		</g>
		<g id="g88">
			<path id="path8441_3_" class="st18" d="M668.9,671.7h-26.6"/>
			<path id="path8443_3_" class="st18" d="M655.4,658.2v26.6"/>
		</g>
		<g id="g92">
			<path id="path8441_5_" class="st19" d="M668.9,356.7h-26.6"/>
			<path id="path8443_5_" class="st18" d="M655.4,343.2v26.6"/>
		</g>
	</g>
	<g id="g96">
		<g id="g98">
			<path id="path8441_4_" class="st18" d="M336.9,41.7h-26.6"/>
			<path id="path8443_4_" class="st18" d="M323.4,28.2v26.6"/>
		</g>
		<g id="g102">
			<path id="path8441_2_" class="st18" d="M336.9,671.7h-26.6"/>
			<path id="path8443_2_" class="st18" d="M323.4,658.2v26.6"/>
		</g>
		<g id="g106">
			<path id="path8441_1_" class="st19" d="M336.9,356.7h-26.6"/>
			<path id="path8443_1_" class="st18" d="M323.4,343.2v26.6"/>
		</g>
	</g>
</g>
<path id="path2495_1_" class="st17" d="M655,626.5v27.8"/>
</svg>
